<svg xmlns="http://www.w3.org/2000/svg" width="115" height="22" viewBox="0 0 115 22" fill="none">
  <g clip-path="url(#clip0_19_4402)">
    <mask id="mask0_19_4402" style="mask-type:luminance" maskUnits="userSpaceOnUse" x="0" y="0" width="115" height="22">
      <path d="M114.168 0.5H0.341797V21.5H114.168V0.5Z" fill="white"/>
    </mask>
    <g mask="url(#mask0_19_4402)">
      <path d="M36.5515 17.9478C33.5412 17.9478 30.363 15.963 28.803 14.5233C27.0968 12.948 22.41 7.82049 22.3893 7.7976C19.3158 4.3391 15.1832 0.5 11.0605 0.5C6.09509 0.5 1.76395 3.96845 0.637695 8.56284C0.723647 8.25992 2.30238 4.05115 8.22809 4.05115C11.2384 4.05115 14.4166 6.03597 15.9765 7.47578C17.6827 9.05104 22.3695 14.1785 22.3903 14.2014C25.4637 17.6599 29.5963 21.499 33.72 21.499C38.6854 21.499 43.0156 18.0305 44.1428 13.4362C44.0569 13.7391 42.4781 17.9478 36.5525 17.9478H36.5515Z" fill="#29AAE1"/>
      <path d="M22.3887 14.2024C22.3779 14.1895 21.0283 12.7138 19.5148 11.1036C18.6968 12.0831 17.5182 13.4173 16.1637 14.6139C13.6385 16.8458 11.9976 17.3142 11.059 17.3142C7.51824 17.3142 4.62946 14.4814 4.62946 11C4.62946 7.51862 7.51428 4.70777 11.059 4.68585C11.1874 4.68585 11.3435 4.6988 11.5312 4.73268C10.4663 4.32017 9.33506 4.05115 8.22655 4.05115C2.30285 4.05115 0.72412 8.25792 0.637181 8.56284C0.44552 9.34598 0.342773 10.161 0.342773 11C0.342773 16.7901 5.07799 21.5 10.983 21.5C13.4449 21.5 16.2022 20.2276 19.0416 17.7167C20.3842 16.53 21.548 15.2606 22.4224 14.2403C22.4115 14.2273 22.3996 14.2154 22.3887 14.2024Z" fill="url(#paint0_linear_19_4402)"/>
      <path d="M22.389 7.79761C22.3999 7.81052 23.7494 9.28619 25.263 10.8964C26.081 9.91693 27.2596 8.58274 28.6141 7.38606C31.1392 5.15416 32.7802 4.68585 33.7188 4.68585C37.2596 4.68585 40.1483 7.51862 40.1483 11C40.1483 14.4615 37.2635 17.2922 33.7188 17.3142C33.5903 17.3142 33.4342 17.3012 33.2465 17.2673C34.3116 17.6798 35.4428 17.9488 36.5512 17.9488C42.4759 17.9488 44.0547 13.7421 44.1416 13.4372C44.3333 12.654 44.436 11.839 44.436 11C44.436 5.20995 39.6237 0.5 33.7188 0.5C31.2568 0.5 28.5765 1.7724 25.7362 4.28331C24.3936 5.47001 23.2298 6.73942 22.3555 7.75975C22.3663 7.77267 22.3782 7.78464 22.389 7.79761Z" fill="url(#paint1_linear_19_4402)"/>
      <path d="M49.2266 9.73859V0.771027H51.6223V9.73859H49.2266Z" fill="#363636"/>
      <path d="M58.2559 9.73859L55.1706 4.41384V9.73859H52.8511V0.771027H55.56L58.3314 5.6404V0.771027H60.664V9.73859H58.2559Z" fill="#363636"/>
      <path d="M66.0818 3.00992V9.73859H63.7243V3.00992H61.1658V0.771027H68.6523V3.00992H66.0818Z" fill="#363636"/>
      <path d="M69.1548 9.73859V0.771027H74.8485V2.81961H71.4874V4.23649H74.5471V6.20933H71.4874V7.65113H74.873V9.73759H69.1548V9.73859Z" fill="#363636"/>
      <path d="M75.7886 9.73859V0.771027H79.5381C81.3439 0.771027 82.5224 1.98563 82.5224 3.65459C82.5224 4.8692 81.8577 5.76696 80.8796 6.15851L82.5604 9.73759H80.0144L78.6095 6.48737H78.1201V9.73759H75.7881L75.7886 9.73859ZM79.0993 4.66693C79.802 4.66693 80.1654 4.26239 80.1654 3.69345C80.1654 3.12451 79.802 2.73193 79.0993 2.73193H78.1212V4.66693H79.0993Z" fill="#363636"/>
      <path d="M88.6055 9.73859L85.5202 4.41384V9.73859H83.2007V0.771027H85.9096L88.6805 5.6404V0.771027H91.0131V9.73859H88.6055Z" fill="#363636"/>
      <path d="M92.0396 9.73859V0.771027H97.7333V2.81961H94.3721V4.23649H97.4319V6.20933H94.3721V7.65113H97.7578V9.73759H92.0396V9.73859Z" fill="#363636"/>
      <path d="M103.065 3.00992V9.73859H100.708V3.00992H98.1492V0.771027H105.636V3.00992H103.065Z" fill="#363636"/>
      <path d="M50.7753 16.6167C50.7753 18.1093 51.8285 18.9692 52.9072 18.9692C54.1363 18.9692 54.663 18.198 54.8515 17.5653L57.0586 18.2099C56.7078 19.5381 55.5282 21.2838 52.8953 21.2838C50.4246 21.2838 48.343 19.4753 48.343 16.6296C48.343 13.7839 50.4622 11.9376 52.8708 11.9376C55.4293 11.9376 56.5953 13.5059 56.9587 14.8471L54.7895 15.5934C54.6261 14.9986 54.1503 14.2144 52.8953 14.2144C51.8917 14.2144 50.7763 14.9856 50.7763 16.6177L50.7753 16.6167Z" fill="#363636"/>
      <path d="M61.6233 11.9376C64.0688 11.9376 66.1885 13.7082 66.1885 16.6177C66.1885 19.5271 64.0694 21.2978 61.6233 21.2978C59.1773 21.2978 57.0581 19.5271 57.0581 16.6177C57.0581 13.7082 59.1773 11.9376 61.6233 11.9376ZM61.6233 19.008C62.6649 19.008 63.7685 18.2617 63.7685 16.6047C63.7685 14.9477 62.6649 14.2273 61.6233 14.2273C60.5822 14.2273 59.4787 14.9736 59.4787 16.6047C59.4787 18.2358 60.5822 19.008 61.6233 19.008Z" fill="#363636"/>
      <path d="M74.7906 21.0945V15.5416L72.8463 21.0945H70.9895L69.0583 15.6054V21.0945H66.8257V12.1269H69.9485L71.9422 17.5912L73.8479 12.1269H77.0586V21.0945H74.7885H74.7906Z" fill="#363636"/>
      <path d="M80.4199 18.0336V21.0945H78.0879V12.1269H81.6365C83.4927 12.1269 84.7592 13.3535 84.7592 15.0862C84.7592 16.819 83.4927 18.0336 81.6365 18.0336H80.4199ZM81.3361 16.0727C81.9504 16.0727 82.4022 15.706 82.4022 15.0992C82.4022 14.4924 81.9504 14.1127 81.3361 14.1127H80.433V16.0737H81.3361V16.0727Z" fill="#363636"/>
      <path d="M85.2234 17.8064V12.1269H87.569V17.7297C87.569 18.6155 88.0203 19.0828 88.798 19.0828C89.5757 19.0828 90.014 18.6145 90.014 17.7297V12.1269H92.3596V17.8064C92.3596 20.0573 90.8667 21.2978 88.798 21.2978C86.7293 21.2978 85.2234 20.0583 85.2234 17.8064Z" fill="#363636"/>
      <path d="M97.6895 14.3658V21.0945H95.3325V14.3658H92.7734V12.1269H100.26V14.3658H97.6895Z" fill="#363636"/>
      <path d="M100.762 21.0945V12.1269H106.455V14.1755H103.094V15.5924H106.154V17.5652H103.094V19.007H106.48V21.0935H100.762V21.0945Z" fill="#363636"/>
      <path d="M107.397 21.0945V12.1269H111.146C112.952 12.1269 114.131 13.3416 114.131 15.0105C114.131 16.2251 113.466 17.1229 112.488 17.5145L114.168 21.0935H111.622L110.218 17.8433H109.728V21.0935H107.396L107.397 21.0945ZM110.707 16.0228C111.41 16.0228 111.774 15.6183 111.774 15.0494C111.774 14.4804 111.41 14.0878 110.707 14.0878H109.729V16.0228H110.707Z" fill="#363636"/>
    </g>
  </g>
  <defs>
    <linearGradient id="paint0_linear_19_4402" x1="16.6152" y1="20.126" x2="1.98631" y2="5.1053" gradientUnits="userSpaceOnUse">
      <stop offset="0.22" stop-color="#EC1E79"/>
      <stop offset="0.89" stop-color="#522784"/>
    </linearGradient>
    <linearGradient id="paint1_linear_19_4402" x1="28.1537" y1="1.883" x2="42.7826" y2="16.9037" gradientUnits="userSpaceOnUse">
      <stop offset="0.21" stop-color="#F05A24"/>
      <stop offset="0.68" stop-color="#FAAF3B"/>
    </linearGradient>
    <clipPath id="clip0_19_4402">
      <rect width="114" height="21" fill="white" transform="translate(0.341797 0.5)"/>
    </clipPath>
  </defs>
</svg>