<svg xmlns="http://www.w3.org/2000/svg" width="111" height="26" viewBox="0 0 111 26" fill="none">
  <path d="M34.6719 23.4986V8.30667H36.9322L37.1475 9.53294H37.2551C37.9009 8.693 38.9984 8.0914 40.5265 8.0914C43.3231 8.0914 45.5622 10.3729 45.5622 13.7499C45.5622 17.127 43.325 19.4085 40.5265 19.4085C39.0196 19.4085 37.9663 18.7838 37.407 18.0746H37.2993V23.4967H34.6738L34.6719 23.4986ZM42.9348 13.7519C42.9348 11.7721 41.6643 10.5247 40.1151 10.5247C38.566 10.5247 37.2955 11.7721 37.2955 13.7519C37.2955 15.7316 38.566 16.979 40.1151 16.979C41.6643 16.979 42.9348 15.7316 42.9348 13.7519Z" fill="#22143D"/>
  <path d="M46.8943 13.7499C46.8943 10.4575 49.2603 8.0914 52.424 8.0914C55.5877 8.0914 57.9538 10.4575 57.9538 13.7499C57.9538 17.0424 55.5877 19.4085 52.424 19.4085C49.2603 19.4085 46.8943 17.0194 46.8943 13.7499ZM55.3071 13.7499C55.3071 11.8125 54.0155 10.5228 52.424 10.5228C50.8326 10.5228 49.5198 11.8144 49.5198 13.7499C49.5198 15.6854 50.8326 16.9559 52.424 16.9559C54.0155 16.9559 55.3071 15.6874 55.3071 13.7499Z" fill="#22143D"/>
  <path d="M59.8567 19.1951V4.13196H62.4822V19.1951H59.8567Z" fill="#22143D"/>
  <path d="M72.2289 8.30663H75.0255L70.2915 21.54C69.8186 22.8527 69.1728 23.4986 67.4718 23.4986H64.9328V21.0672H67.0855C67.4737 21.0672 67.6871 20.873 67.8178 20.5501L68.0753 19.8409L63.6431 8.30663H66.4397L69.2593 15.8603H69.6899L72.2289 8.30663Z" fill="#22143D"/>
  <path d="M75.5272 19.7333H78.1951C78.3027 20.4425 79.0119 21.4112 80.6918 21.4112C82.2621 21.4112 83.2962 20.4214 83.2962 18.9145V17.3865H83.1886C82.6081 18.0111 81.5318 18.5704 80.1536 18.5704C77.357 18.5704 75.2043 16.4177 75.2043 13.3194C75.2043 10.221 77.357 8.0914 80.1536 8.0914C81.5952 8.0914 82.6504 8.67186 83.3173 9.49066H83.425L83.6402 8.30667H85.9217V18.9145C85.9217 21.7976 83.9843 23.7139 80.6918 23.7139C77.013 23.7139 75.5926 21.3036 75.5272 19.7333ZM83.2962 13.3213C83.2962 11.6222 82.0911 10.4382 80.563 10.4382C79.035 10.4382 77.851 11.6222 77.851 13.3213C77.851 15.0204 79.0561 16.2255 80.563 16.2255C82.0699 16.2255 83.2962 15.0416 83.2962 13.3213Z" fill="#22143D"/>
  <path d="M87.7456 13.7499C87.7456 10.4575 90.1117 8.0914 93.2754 8.0914C96.4391 8.0914 98.8051 10.4575 98.8051 13.7499C98.8051 17.0424 96.4391 19.4085 93.2754 19.4085C90.1117 19.4085 87.7456 17.0194 87.7456 13.7499ZM96.1584 13.7499C96.1584 11.8125 94.8668 10.5228 93.2754 10.5228C91.6839 10.5228 90.3711 11.8144 90.3711 13.7499C90.3711 15.6854 91.6839 16.9559 93.2754 16.9559C94.8668 16.9559 96.1584 15.6874 96.1584 13.7499Z" fill="#22143D"/>
  <path d="M100.633 19.1951V8.30667H102.891L103.107 9.33881H103.214C103.645 8.84485 104.721 8.0914 106.355 8.0914C108.852 8.0914 110.658 9.89813 110.658 12.6524V19.1932H108.033V12.9965C108.033 11.5972 107.043 10.5862 105.688 10.5862C104.333 10.5862 103.257 11.6414 103.257 12.9965V19.1932H100.631L100.633 19.1951Z" fill="#22143D"/>
  <path d="M20.5445 17.9227L26.9988 14.1959C27.3409 13.9979 27.5523 13.6308 27.5523 13.2368V5.78304C27.5523 5.38902 27.3409 5.02191 26.9988 4.82394L20.5445 1.09707C20.2024 0.899097 19.7776 0.90102 19.4374 1.09707L12.9832 4.82394C12.641 5.02191 12.4296 5.38902 12.4296 5.78304V19.1029L7.90316 21.715L3.37672 19.1029V13.8768L7.90316 11.2647L10.8881 12.9888V9.483L8.45672 8.07798C8.2895 7.98187 8.09729 7.92998 7.90316 7.92998C7.70904 7.92998 7.51683 7.98187 7.34961 8.07798L0.895349 11.8048C0.553223 12.0028 0.341797 12.3699 0.341797 12.7639V20.2177C0.341797 20.6117 0.553223 20.9788 0.895349 21.1768L7.34961 24.9037C7.69174 25.0997 8.11459 25.0997 8.45672 24.9037L14.911 21.1768C15.2531 20.9788 15.4645 20.6117 15.4645 20.2177V6.89783L15.5453 6.8517L19.989 4.28576L24.5155 6.89783V12.1239L19.989 14.736L17.0079 13.0157V16.5216L19.4355 17.9227C19.7776 18.1188 20.2024 18.1188 20.5426 17.9227H20.5445Z" fill="url(#paint0_linear_19_4429)"/>
  <defs>
    <linearGradient id="paint0_linear_19_4429" x1="0.253382" y1="20.9481" x2="26.3837" y2="5.78112" gradientUnits="userSpaceOnUse">
      <stop stop-color="#A726C1"/>
      <stop offset="0.88" stop-color="#803BDF"/>
      <stop offset="1" stop-color="#7B3FE4"/>
    </linearGradient>
  </defs>
</svg>